<svg width="220" height="140" viewBox="0 0 220 140" fill="none" xmlns="http://www.w3.org/2000/svg">
<rect width="220" height="140" fill="#2C2F33"/>
<g clip-path="url(#clip0)">
<g filter="url(#filter0_d)">
<path d="M73.874 39.5L52 12L30.1261 39.5H73.874Z" fill="#99AAB5"/>
<path d="M52 77L73.874 39.5H30.1261L52 77Z" fill="#99AAB5"/>
<path d="M73.874 39.5L87 32L52 12L73.874 39.5Z" fill="#99AAB5"/>
<path d="M87 72V32L73.874 39.5L87 72Z" fill="#99AAB5"/>
<path d="M87 72L73.874 39.5L52 77L87 72Z" fill="#99AAB5"/>
<path d="M87 72L52 77V92L87 72Z" fill="#99AAB5"/>
<path d="M52 92V77L17 72L52 92Z" fill="#99AAB5"/>
<path d="M52 77L30.1261 39.5L17 72L52 77Z" fill="#99AAB5"/>
<path d="M30.1261 39.5L17 32V72L30.1261 39.5Z" fill="#99AAB5"/>
<path d="M30.1261 39.5L52 12L17 32L30.1261 39.5Z" fill="#99AAB5"/>
<path d="M87 32V72M87 32L73.874 39.5M87 32L52 12M87 72L73.874 39.5M87 72L52 77M87 72L52 92M73.874 39.5L52 77M73.874 39.5L52 12M73.874 39.5H30.1261M52 77V92M52 77L30.1261 39.5M52 77L17 72M52 12L30.1261 39.5M52 12L17 32M52 92L17 72M30.1261 39.5L17 32M30.1261 39.5L17 72M17 72V32" stroke="black" stroke-width="2"/>
</g>
</g>
<g filter="url(#filter1_d)">
<path d="M107.026 108.421C106.107 108.421 105.382 109.213 105.382 110.2C105.382 111.186 106.123 111.978 107.026 111.978C107.946 111.978 108.671 111.186 108.671 110.2C108.671 109.213 107.929 108.421 107.026 108.421ZM101.141 108.421C100.222 108.421 99.4961 109.213 99.4961 110.2C99.4961 111.186 100.238 111.978 101.141 111.978C102.06 111.978 102.786 111.186 102.786 110.2C102.802 109.213 102.06 108.421 101.141 108.421Z" fill="#7289DA"/>
<path d="M114.863 94.9669H93.2558C91.4337 94.9669 89.9502 96.4546 89.9502 98.2819V119.95C89.9502 121.778 91.4337 123.265 93.2558 123.265H111.542L110.687 120.306L112.751 122.214L114.702 124.009L118.185 127.033V98.2819C118.169 96.4546 116.685 94.9669 114.863 94.9669ZM108.639 115.908C108.639 115.908 108.059 115.212 107.575 114.614C109.687 114.016 110.493 112.706 110.493 112.706C109.832 113.143 109.203 113.45 108.639 113.66C107.833 114 107.059 114.21 106.301 114.355C104.753 114.646 103.334 114.566 102.125 114.339C101.205 114.161 100.415 113.919 99.7542 113.644C99.3833 113.498 98.9802 113.32 98.5771 113.094C98.5287 113.062 98.4803 113.046 98.4319 113.013C98.3997 112.997 98.3836 112.981 98.3674 112.981C98.0772 112.819 97.9159 112.706 97.9159 112.706C97.9159 112.706 98.6899 113.983 100.738 114.598C100.254 115.212 99.6574 115.924 99.6574 115.924C96.0938 115.811 94.7393 113.482 94.7393 113.482C94.7393 108.324 97.0613 104.136 97.0613 104.136C99.3833 102.405 101.576 102.454 101.576 102.454L101.738 102.648C98.8351 103.473 97.5128 104.75 97.5128 104.75C97.5128 104.75 97.8676 104.556 98.4642 104.297C100.19 103.537 101.56 103.343 102.125 103.279C102.221 103.262 102.302 103.246 102.399 103.246C103.382 103.117 104.495 103.085 105.656 103.214C107.188 103.392 108.833 103.845 110.51 104.75C110.51 104.75 109.236 103.537 106.494 102.713L106.72 102.454C106.72 102.454 108.929 102.405 111.235 104.136C111.235 104.136 113.557 108.324 113.557 113.482C113.557 113.466 112.203 115.795 108.639 115.908V115.908ZM132.988 101.888H127.634V107.92L131.198 111.137V105.284H133.101C134.31 105.284 134.907 105.866 134.907 106.804V111.283C134.907 112.221 134.342 112.852 133.101 112.852H127.618V116.263H132.972C135.842 116.28 138.535 114.84 138.535 111.542V106.723C138.551 103.359 135.858 101.888 132.988 101.888V101.888ZM161.045 111.542V106.594C161.045 104.815 164.238 104.411 165.206 106.189L168.156 104.993C166.995 102.438 164.883 101.694 163.125 101.694C160.255 101.694 157.417 103.359 157.417 106.594V111.542C157.417 114.808 160.255 116.441 163.061 116.441C164.867 116.441 167.028 115.552 168.221 113.223L165.06 111.768C164.286 113.757 161.045 113.272 161.045 111.542V111.542ZM151.29 107.273C150.177 107.03 149.435 106.626 149.387 105.931C149.451 104.265 152.015 104.2 153.515 105.801L155.885 103.974C154.402 102.163 152.725 101.678 150.999 101.678C148.371 101.678 145.823 103.165 145.823 105.979C145.823 108.712 147.92 110.183 150.225 110.539C151.403 110.701 152.709 111.17 152.676 111.978C152.58 113.515 149.419 113.434 147.984 111.687L145.694 113.838C147.033 115.568 148.855 116.441 150.564 116.441C153.192 116.441 156.111 114.921 156.224 112.14C156.385 108.631 153.837 107.742 151.29 107.273V107.273ZM140.486 116.247H144.098V101.888H140.486V116.247ZM201.39 101.888H196.037V107.92L199.6 111.137V105.284H201.503C202.712 105.284 203.309 105.866 203.309 106.804V111.283C203.309 112.221 202.745 112.852 201.503 112.852H196.02V116.263H201.39C204.26 116.28 206.953 114.84 206.953 111.542V106.723C206.953 103.359 204.26 101.888 201.39 101.888V101.888ZM175.122 101.694C172.155 101.694 169.205 103.311 169.205 106.626V111.526C169.205 114.808 172.172 116.458 175.155 116.458C178.122 116.458 181.073 114.808 181.073 111.526V106.626C181.073 103.327 178.089 101.694 175.122 101.694ZM177.444 111.526C177.444 112.56 176.283 113.094 175.139 113.094C173.978 113.094 172.817 112.593 172.817 111.526V106.626C172.817 105.575 173.945 105.009 175.074 105.009C176.251 105.009 177.444 105.51 177.444 106.626V111.526V111.526ZM194.037 106.626C193.956 103.262 191.667 101.904 188.716 101.904H182.991V116.263H186.652V111.703H187.297L190.619 116.263H195.134L191.231 111.331C192.957 110.782 194.037 109.278 194.037 106.626ZM188.78 108.566H186.652V105.284H188.78C191.054 105.284 191.054 108.566 188.78 108.566Z" fill="#7289DA"/>
</g>
<g filter="url(#filter2_d)">
<path d="M148.939 91.0607C149.525 91.6465 150.475 91.6465 151.061 91.0607L160.607 81.5147C161.192 80.929 161.192 79.9792 160.607 79.3934C160.021 78.8076 159.071 78.8076 158.485 79.3934L150 87.8787L141.515 79.3934C140.929 78.8076 139.979 78.8076 139.393 79.3934C138.808 79.9792 138.808 80.9289 139.393 81.5147L148.939 91.0607ZM148 52L148 50.5L148 52ZM150 54L151.5 54L150 54ZM96.9999 53.5L148 53.5L148 50.5L96.9999 50.5L96.9999 53.5ZM148.5 54L148.5 90L151.5 90L151.5 54L148.5 54ZM148 53.5C148.276 53.5 148.5 53.7239 148.5 54L151.5 54C151.5 52.067 149.933 50.5 148 50.5L148 53.5Z" fill="white"/>
</g>
<defs>
<filter id="filter0_d" x="12" y="10.8483" width="80" height="90.3035" filterUnits="userSpaceOnUse" color-interpolation-filters="sRGB">
<feFlood flood-opacity="0" result="BackgroundImageFix"/>
<feColorMatrix in="SourceAlpha" type="matrix" values="0 0 0 0 0 0 0 0 0 0 0 0 0 0 0 0 0 0 127 0"/>
<feOffset dy="4"/>
<feGaussianBlur stdDeviation="2"/>
<feColorMatrix type="matrix" values="0 0 0 0 0 0 0 0 0 0 0 0 0 0 0 0 0 0 0.25 0"/>
<feBlend mode="normal" in2="BackgroundImageFix" result="effect1_dropShadow"/>
<feBlend mode="normal" in="SourceGraphic" in2="effect1_dropShadow" result="shape"/>
</filter>
<filter id="filter1_d" x="80" y="89" width="137" height="52" filterUnits="userSpaceOnUse" color-interpolation-filters="sRGB">
<feFlood flood-opacity="0" result="BackgroundImageFix"/>
<feColorMatrix in="SourceAlpha" type="matrix" values="0 0 0 0 0 0 0 0 0 0 0 0 0 0 0 0 0 0 127 0"/>
<feOffset dy="4"/>
<feGaussianBlur stdDeviation="2"/>
<feColorMatrix type="matrix" values="0 0 0 0 0 0 0 0 0 0 0 0 0 0 0 0 0 0 0.25 0"/>
<feBlend mode="normal" in2="BackgroundImageFix" result="effect1_dropShadow"/>
<feBlend mode="normal" in="SourceGraphic" in2="effect1_dropShadow" result="shape"/>
</filter>
<filter id="filter2_d" x="87.2683" y="29.5226" width="87.5268" height="72.3891" filterUnits="userSpaceOnUse" color-interpolation-filters="sRGB">
<feFlood flood-opacity="0" result="BackgroundImageFix"/>
<feColorMatrix in="SourceAlpha" type="matrix" values="0 0 0 0 0 0 0 0 0 0 0 0 0 0 0 0 0 0 127 0"/>
<feOffset dy="4"/>
<feGaussianBlur stdDeviation="2"/>
<feColorMatrix type="matrix" values="0 0 0 0 0 0 0 0 0 0 0 0 0 0 0 0 0 0 0.25 0"/>
<feBlend mode="normal" in2="BackgroundImageFix" result="effect1_dropShadow"/>
<feBlend mode="normal" in="SourceGraphic" in2="effect1_dropShadow" result="shape"/>
</filter>
<clipPath id="clip0">
<rect width="90" height="90" fill="white" transform="translate(7 7)"/>
</clipPath>
</defs>
</svg>
