<svg width="216" height="216" viewBox="0 0 216 216" fill="none" stroke-linecap="round" xmlns="http://www.w3.org/2000/svg">
<path fill-rule="evenodd" clip-rule="evenodd" d="M159.309 62.2137L208 151.558L200.279 172.988L106.782 208L57.438 120.469L65.1594 99.0382L159.309 62.2137ZM69.0058 102.846L63.6328 117.758L95.8212 117.719L146.323 72.6047L69.0058 102.846ZM156.438 70.1807L100.154 120.461L126.678 152.779L167.561 145.245L156.438 70.1807ZM169.642 149.896L127.53 157.657L111.998 200.764L193.561 170.221L169.642 149.896ZM197.258 166.889L172.625 145.958L162.645 78.606L202.631 151.977L197.258 166.889ZM107.391 199.07L122.922 155.963L95.6001 122.673L64.3446 122.711L107.391 199.07Z" fill="black"/>
<path fill-rule="evenodd" clip-rule="evenodd" d="M84.0039 8L149.976 66.2718L146.748 70.0008L92.6887 22.251L122.866 78.3652L118.557 80.7299L84.0039 16.4783L48.1373 83.1723L73.0065 97.8756L70.5297 102.151L44.6067 86.8244L15.2491 97.6591L82.7178 155.54L79.5437 159.316L8 97.9388V75.1328L84.0039 8ZM12.9035 93.2511V77.3816L75.3191 22.251L43.1374 82.093L12.9035 93.2511Z" fill="black"/>
</svg>
