<svg width="216" height="216" viewBox="0 0 216 216" fill="none" xmlns="http://www.w3.org/2000/svg">
<path d="M174.658 28L108.935 41.5278M174.658 28L146.086 8H74.6711L41.3422 28M174.658 28L208 88M108.935 41.5278L41.3422 28M108.935 41.5278L107.987 108L108.441 108.847M41.3422 28L8 88M208 88L163.553 141.333M208 88L207.987 128L174.658 188L141.329 208M163.553 141.333L108.935 108.556L108.441 108.847M163.553 141.333L141.329 208M108.441 108.847L52.4474 141.333M141.329 208H74.6979M74.6979 208L52.4474 141.333M74.6979 208L41.3422 188L8.01337 128L8 88M52.4474 141.333L8 88" stroke="black" stroke-width="5"/>
</svg>
