<svg width="216" height="216" viewBox="0 0 216 216" fill="none" stroke-linejoin="round" xmlns="http://www.w3.org/2000/svg">
<path d="M195 58V158M195 58L162.185 76.75M195 58L107.5 8M195 158L162.185 76.75M195 158L107.5 170.5M195 158L107.5 208M162.185 76.75L107.5 170.5M162.185 76.75L107.5 8M162.185 76.75H52.8151M107.5 170.5V208M107.5 170.5L52.8151 76.75M107.5 170.5L20 158M107.5 8L52.8151 76.75M107.5 8L20 58M107.5 208L20 158M52.8151 76.75L20 58M52.8151 76.75L20 158M20 158V58" stroke="black" stroke-width="5"/>
</svg>
