<svg width="128" height="128" viewBox="0 0 128 128" fill="none" stroke-linecap="round" xmlns="http://www.w3.org/2000/svg">
<path d="M115.556 34.3704V93.6296L63.7037 123.259L11.8518 93.6296V34.3704L63.7037 4.74074L115.556 34.3704Z" fill="#99AAB5"/>
<path d="M115.556 34.3704V93.6296M115.556 34.3704L96.1095 45.4815M115.556 34.3704L63.7037 4.74074M115.556 93.6296L96.1095 45.4815M115.556 93.6296L63.7037 101.037M115.556 93.6296L63.7037 123.259M96.1095 45.4815L63.7037 101.037M96.1095 45.4815L63.7037 4.74074M96.1095 45.4815H31.2978M63.7037 101.037V123.259M63.7037 101.037L31.2978 45.4815M63.7037 101.037L11.8518 93.6296M63.7037 4.74074L31.2978 45.4815M63.7037 4.74074L11.8518 34.3704M63.7037 123.259L11.8518 93.6296M31.2978 45.4815L11.8518 34.3704M31.2978 45.4815L11.8518 93.6296M11.8518 93.6296V34.3704" stroke="black" stroke-width="3"/>
</svg>
