<svg width="32" height="32" viewBox="0 0 32 32" fill="none" xmlns="http://www.w3.org/2000/svg">
<path d="M28.8888 8.59259V23.4074L15.9259 30.8148L2.96289 23.4074V8.59259L15.9259 1.18518L28.8888 8.59259Z" fill="#99AAB5"/>
<path d="M28.8888 8.59259V23.4074M28.8888 8.59259L24.0273 11.3704M28.8888 8.59259L15.9259 1.18518M28.8888 23.4074L24.0273 11.3704M28.8888 23.4074L15.9259 25.2593M28.8888 23.4074L15.9259 30.8148M24.0273 11.3704L15.9259 25.2593M24.0273 11.3704L15.9259 1.18518M24.0273 11.3704H7.82439M15.9259 25.2593V30.8148M15.9259 25.2593L7.82439 11.3704M15.9259 25.2593L2.96289 23.4074M15.9259 1.18518L7.82439 11.3704M15.9259 1.18518L2.96289 8.59259M15.9259 30.8148L2.96289 23.4074M7.82439 11.3704L2.96289 8.59259M7.82439 11.3704L2.96289 23.4074M2.96289 23.4074V8.59259" stroke="black" stroke-width="0.75"/>
</svg>
